<svg width="33" height="30" viewBox="0 0 33 30" fill="none" xmlns="http://www.w3.org/2000/svg">
<path d="M8.95589 2.48263C9.54428 1.91827 9.54852 0.999171 8.96536 0.429758C8.38219 -0.139656 7.43246 -0.143757 6.84406 0.420598L3.96178 3.18513C2.88943 4.21362 1.99507 5.0714 1.35738 5.83982C0.68853 6.6458 0.179786 7.49286 0.0438619 8.52485C0.014622 8.74685 0 8.97019 0 9.19355C0 9.4169 0.0146218 9.64024 0.0438614 9.86225C0.179785 10.8942 0.688528 11.7413 1.35738 12.5473C1.99506 13.3157 2.88942 14.1735 3.96177 15.202L6.84406 17.9665C7.43245 18.5309 8.38219 18.5268 8.96535 17.9573C9.54852 17.3879 9.54428 16.4688 8.95589 15.9045L6.13515 13.199C4.98535 12.0961 4.21464 11.3538 3.69645 10.7294C3.67268 10.7007 3.64973 10.6727 3.62757 10.6452H21.5C26.1944 10.6452 30 14.328 30 18.871C30 23.414 26.1944 27.0968 21.5 27.0968H5.50008C4.67166 27.0968 4.00009 27.7467 4.00009 28.5484C4.00009 29.3501 4.67166 30 5.50008 30H21.5C27.8513 30 33 25.0174 33 18.871C33 12.7246 27.8513 7.74194 21.5 7.74194H3.62757C3.64973 7.71442 3.67268 7.68636 3.69645 7.65772C4.21464 7.03328 4.98535 6.29096 6.13515 5.18814L8.95589 2.48263Z" fill="white"/>
</svg>
