<svg width="43" height="43" viewBox="0 0 43 43" fill="none" xmlns="http://www.w3.org/2000/svg">
<path fill-rule="evenodd" clip-rule="evenodd" d="M13.8801 0.119573C10.9774 0.219512 9.49212 0.426333 7.98758 0.939783C4.25109 2.21489 1.63994 5.05484 0.663231 8.90598C0.0511991 11.3196 0 12.2889 0 21.4615C0 30.6405 0.0574844 31.7364 0.665719 34.15C1.67909 38.171 4.61787 41.1929 8.57146 42.2797C11.0394 42.9579 11.9316 43.0087 21.2129 42.999C31.5414 42.9882 32.9866 42.8771 35.5176 41.8992C37.1161 41.2816 38.1441 40.6114 39.3486 39.4015C41.0379 37.7047 42.0162 35.7441 42.5598 32.9657C42.9615 30.9124 43.1277 21.6569 42.8911 14.5195C42.8056 11.9421 42.7157 10.8677 42.4977 9.81421C41.934 7.09044 41.0343 5.3282 39.3493 3.64797C37.6713 1.97467 35.8029 1.0151 33.1978 0.488418C30.9904 0.0420316 21.4301 -0.140426 13.8801 0.119573ZM34.0834 7.6957C35.1003 8.21727 35.6055 9.09734 35.5252 10.2074C35.3622 12.4612 32.7551 13.4322 31.1576 11.8341C29.8227 10.499 30.2795 8.2901 32.0358 7.5862C32.5613 7.37558 33.5641 7.42929 34.0834 7.6957ZM23.366 10.598C24.4229 10.7695 26.2633 11.4545 27.245 12.0417C28.3397 12.6966 29.9221 14.2385 30.6933 15.4018C34.8502 21.6719 31.6654 30.1624 24.3861 32.2169C22.9702 32.6165 20.1185 32.6499 18.7907 32.2825C16.7798 31.7261 15.077 30.7447 13.6775 29.3359C11.6444 27.2892 10.6044 24.9401 10.4508 22.0483C10.321 19.6062 10.9126 17.4641 12.2875 15.3971C13.9098 12.9583 16.4883 11.2176 19.3142 10.6535C20.3712 10.4425 22.2499 10.4169 23.366 10.598ZM19.7213 14.5956C16.6668 15.4174 14.5623 17.9906 14.3741 21.1341C14.1705 24.5351 16.5192 27.6785 19.8515 28.4642C23.337 29.286 26.9447 27.3412 28.1892 23.9693C28.6215 22.7985 28.7236 21.0605 28.4291 19.8897C27.7664 17.255 25.7819 15.2496 23.1823 14.5873C22.2144 14.3407 20.655 14.3445 19.7213 14.5956Z" fill="#B8B5FF"/>
</svg>
