<svg width="43" height="43" viewBox="0 0 43 43" fill="none" xmlns="http://www.w3.org/2000/svg">
<path fill-rule="evenodd" clip-rule="evenodd" d="M21.5 0C9.6277 0 0 9.6277 0 21.5C0 33.3723 9.6277 43 21.5 43C33.3723 43 43 33.3723 43 21.5C43 9.6277 33.3723 0 21.5 0ZM31.4674 14.62C31.1449 18.0213 29.7431 26.2687 29.0293 30.0785C28.7283 31.691 28.1349 32.2285 27.5587 32.2844C26.3117 32.4005 25.3614 31.4588 24.1531 30.6676C22.2611 29.4292 21.1904 28.6552 19.3543 27.4426C17.2301 26.0451 18.6061 25.2754 19.8187 24.0198C20.1369 23.6887 25.6366 18.6878 25.7441 18.232C25.757 18.1761 25.7699 17.9654 25.6452 17.8536C25.5205 17.7418 25.3356 17.7805 25.2023 17.8106C25.0131 17.8536 21.9902 19.8531 16.1336 23.8048C15.2736 24.3939 14.4996 24.682 13.803 24.6648C13.0333 24.6476 11.5584 24.2305 10.4619 23.8736C9.116 23.435 8.0453 23.2028 8.1399 22.4632C8.1872 22.0762 8.7204 21.6806 9.7395 21.2764C16.0089 18.5459 20.1885 16.7442 22.2783 15.8756C28.251 13.3902 29.4894 12.9602 30.2978 12.9473C30.4741 12.943 30.874 12.9903 31.132 13.1967C31.347 13.373 31.4115 13.6095 31.4373 13.7772C31.4588 13.9449 31.4932 14.3233 31.4674 14.62Z" fill="#B8B5FF"/>
</svg>
