<svg width="43" height="43" viewBox="0 0 43 43" fill="none" xmlns="http://www.w3.org/2000/svg">
<path fill-rule="evenodd" clip-rule="evenodd" d="M16.5805 0.0388939C10.8835 0.306847 7.19155 0.657227 6.05889 1.03752C3.37799 1.9375 1.36278 4.19934 0.822619 6.91458C0.65626 7.75087 0.390002 10.5572 0.188859 13.5953C0.0100654 16.2953 -0.0625275 23.8506 0.0628297 26.7054C0.253722 31.0516 0.627609 35.3844 0.905462 36.4708C1.63131 39.309 4.04544 41.5966 6.9174 42.1676C8.08527 42.3998 12.3414 42.7543 15.9503 42.9199C18.2913 43.0274 24.7271 43.0265 27.0409 42.9185C31.2554 42.7217 35.4601 42.3447 36.5103 42.0697C39.1927 41.367 41.4007 39.1498 42.0858 36.4708C42.3544 35.4205 42.7344 31.0778 42.9185 26.9552C43.0272 24.5224 43.0272 18.4648 42.9185 16.032C42.7344 11.9094 42.3544 7.56669 42.0858 6.51639C41.3988 3.82989 39.1584 1.58939 36.472 0.902325C35.442 0.638826 31.0869 0.252399 27.0829 0.0691425C25.4661 -0.00488266 17.9699 -0.0263928 16.5805 0.0388939ZM26.7903 9.24709C26.792 10.6256 26.9237 11.3857 27.2889 12.1249C27.7921 13.1434 28.8012 14.0095 29.8976 14.3641C30.3356 14.5056 30.7322 14.549 31.9014 14.583L33.3591 14.6252L33.3087 14.877C33.2811 15.0155 33.2584 15.937 33.2584 16.9248V18.7208H32.2048C30.1533 18.7208 28.7581 18.4487 27.4583 17.7952L26.7889 17.4586L26.7885 22.2279C26.7882 27.3906 26.7599 27.8151 26.3309 29.0978C24.6657 34.0759 18.7944 36.3844 14.1859 33.8729C12.1519 32.7644 10.7116 30.9705 10.0148 28.6776C9.79986 27.9706 9.7849 27.8204 9.7849 26.367C9.7849 24.9173 9.80019 24.7628 10.0114 24.0745C10.4885 22.5201 11.145 21.4044 12.2016 20.3526C13.3475 19.212 14.6131 18.4859 16.1604 18.081C16.885 17.8915 17.229 17.8553 18.66 17.8181L20.3194 17.7751V19.8349V21.8946L18.87 21.9319C17.1879 21.9752 16.7072 22.0977 15.7656 22.7233C14.5481 23.5322 13.8499 24.8603 13.8499 26.367C13.8499 27.5854 14.2716 28.6104 15.1236 29.4624C16.5011 30.84 18.4137 31.1613 20.2159 30.3179C20.9064 29.9947 21.8634 29.0501 22.19 28.3692C22.692 27.3226 22.6719 27.7765 22.6719 17.4848V8.04975H24.7304H26.7889L26.7903 9.24709Z" fill="#B8B5FF"/>
</svg>
