<svg width="44" height="43" viewBox="0 0 44 43" fill="none" xmlns="http://www.w3.org/2000/svg">
<path d="M0.728417 25.2605V17.6946C0.756481 17.3487 0.793524 17.0028 0.811485 16.6558C0.861999 15.6911 0.88445 14.7241 0.954047 13.7617C1.091 11.8784 1.28295 9.9984 1.39745 8.11282C1.60063 4.75381 3.80191 1.81033 7.07073 0.997249C8.87128 0.549157 10.7717 0.468298 12.6351 0.312196C14.5446 0.150479 16.4618 0.0348058 18.378 0.0179602C21.639 -0.0123618 24.9033 -0.0146079 28.162 0.0943268C30.6765 0.177432 33.1854 0.434607 35.6953 0.640123C38.2951 0.8535 40.3527 2.03044 41.8098 4.20689C42.6472 5.45908 43.0064 6.86512 43.1041 8.35989C43.2758 10.971 43.5699 13.5764 43.6474 16.1897C43.7439 19.4914 43.7619 22.801 43.6519 26.1016C43.5475 29.2169 43.3263 32.3368 42.9839 35.4352C42.6416 38.5382 40.8534 40.6484 37.9707 41.8208C36.8527 42.2756 35.6583 42.3408 34.474 42.4239C32.0044 42.5957 29.5326 42.7518 27.0619 42.9169C26.7723 42.936 26.4838 42.9719 26.1942 43H18.378C18.0446 42.9719 17.7123 42.9349 17.379 42.9169C16.4282 42.8675 15.4763 42.845 14.5266 42.7765C12.6284 42.6384 10.7324 42.4879 8.83648 42.3194C5.79553 42.0488 3.55047 40.5709 2.16751 37.8318C1.64216 36.7907 1.45919 35.6632 1.37612 34.5098C1.22682 32.4165 1.05171 30.3243 0.899043 28.2298C0.8272 27.2415 0.783422 26.251 0.727295 25.2616L0.728417 25.2605ZM22.0835 31.4102C25.0515 31.2283 27.8455 31.0655 30.6372 30.8802C31.6419 30.8139 32.5882 30.523 33.4334 29.9582C34.2237 29.4303 34.895 28.7666 35.0678 27.8087C35.3047 26.4902 35.4832 25.156 35.5966 23.8208C35.8132 21.2715 35.6527 18.73 35.2699 16.2021C35.1329 15.2969 34.9691 14.4131 34.2922 13.7123C33.4402 12.8318 32.4029 12.2591 31.2063 12.1625C28.4314 11.939 25.6498 11.6942 22.8693 11.6852C19.8788 11.6762 16.8862 11.9143 13.8957 12.0738C12.7272 12.1355 11.6484 12.5095 10.7178 13.244C10.087 13.7415 9.5549 14.3434 9.42019 15.1464C9.19457 16.4817 9.00486 17.8282 8.89148 19.177C8.6782 21.6982 8.83648 24.2116 9.21702 26.7115C9.34948 27.5852 9.48081 28.4544 10.1173 29.1484C10.9873 30.0985 12.0671 30.6915 13.3277 30.7982C16.2968 31.0509 19.2727 31.2182 22.0835 31.4091V31.4102Z" fill="#B8B5FF"/>
<path d="M19.0515 16.3222C21.8579 18.0461 24.6126 19.7396 27.4391 21.477C24.6272 23.2042 21.8657 24.9011 19.0515 26.6283V16.3222Z" fill="#B8B5FF"/>
</svg>
