<svg width="44" height="68" viewBox="0 0 44 68" fill="none" xmlns="http://www.w3.org/2000/svg">
<path fill-rule="evenodd" clip-rule="evenodd" d="M26.8016 51.0558C36.2606 41.7364 44 34.0603 44 33.9978C44 33.8564 9.65241 -3.00276e-06 9.509 -3.0153e-06C9.3942 -3.02534e-06 -0.00139486 9.23085 5.12803e-06 9.34221C0.00050485 9.38035 5.60312 14.9307 12.4503 21.6763C19.2974 28.4219 24.8996 33.9677 24.8996 34.0003C24.8996 34.0329 19.2975 39.5786 12.4505 46.324C5.60342 53.0695 0.000805721 58.6196 0.000202996 58.6578C-0.00149455 58.7658 9.3924 68 9.504 68C9.5585 68 17.3424 60.375 26.8016 51.0558Z" fill="white"/>
</svg>
