<svg width="21" height="22" viewBox="0 0 21 22" fill="none" xmlns="http://www.w3.org/2000/svg">
<path d="M11.6667 4.88919C11.6667 4.32928 11.6654 3.77005 11.6667 3.21014C11.6719 1.46119 13.0598 0.00610809 14.7296 0.00203603C15.7818 -0.000678677 16.8341 -0.000678677 17.8864 0.00203603C19.6248 0.00678677 20.9926 1.43947 20.9978 3.26104C21.001 4.36322 21.0004 5.46607 20.9978 6.56824C20.9933 8.31515 19.6021 9.77227 17.9343 9.77635C16.8659 9.77906 15.7974 9.77906 14.7289 9.77635C13.0579 9.77159 11.6713 8.31787 11.6667 6.56756C11.6654 6.00765 11.6667 5.44842 11.6667 4.88851V4.88919Z" fill="white"/>
<path d="M11.6667 17.1108C11.6667 16.5509 11.6654 15.9917 11.6667 15.4318C11.6713 13.6828 13.0592 12.2277 14.7289 12.223C15.7974 12.2203 16.8659 12.2203 17.9343 12.223C19.6034 12.227 20.9933 13.6821 20.9978 15.4304C21.0004 16.5495 21.0004 17.6694 20.9978 18.7885C20.9933 20.5361 19.6034 21.9932 17.9356 21.998C16.8671 22.0007 15.7987 22.0007 14.7302 21.998C13.0624 21.9932 11.6719 20.5354 11.6667 18.7899C11.6654 18.2299 11.6667 17.6707 11.6667 17.1108Z" fill="white"/>
<path d="M4.67801 0.00138881C5.20414 0.00138881 5.73092 3.14557e-05 6.25705 0.00138881C7.94366 0.00613955 9.32962 1.45715 9.33286 3.22375C9.3348 4.3266 9.3348 5.42945 9.33286 6.5323C9.32962 8.30636 7.93783 9.76891 6.2441 9.7757C5.17498 9.78045 4.10587 9.77977 3.03676 9.7757C1.40135 9.77027 0.00696542 8.305 0.0024298 6.58795C-0.000809933 5.45931 -0.000809933 4.33135 0.0024298 3.20271C0.00696542 1.46937 1.39292 0.0142837 3.04972 0.00206749C3.59205 -0.00200458 4.13503 0.00206749 4.67736 0.00138881H4.67801Z" fill="white"/>
<path d="M4.67086 21.9986C2.07842 21.9986 0.00110842 19.8228 0.00175637 17.1074C0.00175637 14.3941 2.08102 12.2216 4.67669 12.223C7.26394 12.2237 9.33477 14.4049 9.33348 17.1264C9.33153 19.8228 7.24968 21.9986 4.67086 21.9986Z" fill="white"/>
</svg>
