<svg width="11" height="18" viewBox="0 0 11 18" fill="none" xmlns="http://www.w3.org/2000/svg">
<path fill-rule="evenodd" clip-rule="evenodd" d="M6.70036 4.48524C9.06513 6.95212 11 8.98404 11 9.00058C11 9.03801 2.41307 18 2.37722 18C2.34852 18 -0.000379969 15.5565 -2.99676e-05 15.5271C9.49646e-05 15.517 1.40075 14.0477 3.11253 12.2621C4.82432 10.4765 6.22487 9.00856 6.22487 8.99992C6.22487 8.99129 4.82434 7.52332 3.11258 5.73777C1.40083 3.9522 0.000171444 2.48303 2.17183e-05 2.47294C-0.000403618 2.44435 2.34807 -7.56373e-07 2.37597 -7.53934e-07C2.3896 -7.52743e-07 4.33556 2.01837 6.70036 4.48524Z" fill="white"/>
</svg>
