<svg width="27" height="28" viewBox="0 0 27 28" fill="none" xmlns="http://www.w3.org/2000/svg">
<path fill-rule="evenodd" clip-rule="evenodd" d="M8.71538 0.0778615C6.8928 0.142938 5.96017 0.277612 5.01546 0.611951C2.66929 1.44226 1.02973 3.29153 0.416447 5.79924C0.0321483 7.37089 0 8.00204 0 13.9749C0 19.9519 0.0360949 20.6656 0.41801 22.2372C1.05431 24.8556 2.89959 26.8233 5.38208 27.531C6.93169 27.9726 7.49194 28.0057 13.3197 27.9994C19.805 27.9923 20.7125 27.92 22.3018 27.2832C23.3054 26.881 23.9509 26.4446 24.7073 25.6568C25.768 24.5519 26.3823 23.2752 26.7236 21.466C26.9758 20.129 27.0802 14.1022 26.9316 9.45454C26.8779 7.77628 26.8215 7.07664 26.6846 6.39065C26.3307 4.61703 25.7657 3.46953 24.7077 2.37542C23.654 1.28583 22.4809 0.660994 20.8451 0.31804C19.4591 0.0273694 13.4561 -0.0914404 8.71538 0.0778615ZM21.4012 5.01116C22.0397 5.35078 22.3569 5.92385 22.3065 6.64669C22.2042 8.11429 20.5672 8.74654 19.5641 7.70591C18.7259 6.83655 19.0127 5.39821 20.1155 4.93985C20.4455 4.80271 21.0751 4.83768 21.4012 5.01116ZM14.6717 6.90103C15.3353 7.01267 16.4909 7.45874 17.1073 7.8411C17.7947 8.26755 18.7883 9.27159 19.2725 10.0291C21.8827 14.1119 19.8829 19.6406 15.3122 20.9784C14.4231 21.2386 12.6325 21.2604 11.7988 21.0211C10.5362 20.6588 9.46696 20.0198 8.58819 19.1024C7.31163 17.7697 6.65855 16.2401 6.56211 14.357C6.48063 12.7668 6.8521 11.372 7.71542 10.026C8.73405 8.43796 10.3531 7.30445 12.1275 6.93719C12.7912 6.79979 13.9708 6.78307 14.6717 6.90103ZM12.3832 9.5041C10.4652 10.0392 9.14375 11.7148 9.0256 13.7617C8.89775 15.9764 10.3725 18.0232 12.4649 18.5348C14.6534 19.07 16.9188 17.8036 17.7002 15.6079C17.9716 14.8455 18.0357 13.7138 17.8508 12.9515C17.4347 11.2358 16.1887 9.92995 14.5563 9.49872C13.9486 9.33812 12.9694 9.34059 12.3832 9.5041Z" fill="white"/>
</svg>
