<svg width="39" height="30" viewBox="0 0 39 30" fill="none" xmlns="http://www.w3.org/2000/svg">
<path d="M16.9722 1.29199C18.2637 0.477237 19.6102 -0.0820977 21.0117 0.326379C21.4768 0.461948 21.9177 0.669905 22.3181 0.942612C23.5247 1.76429 23.9494 3.1591 24.1421 4.67394C24.2517 5.53604 24.2993 6.5647 24.3198 7.75876L31.5198 0.558796C32.0113 0.0672285 32.8083 0.0672263 33.2999 0.558791C33.7915 1.05036 33.7915 1.84734 33.2999 2.33891L6.44704 29.1919C5.95547 29.6835 5.15849 29.6835 4.66692 29.1919C4.17535 28.7003 4.17535 27.9034 4.66691 27.4118L10.0089 22.0698C9.91595 21.9947 9.84835 21.9417 9.78106 21.8916C8.64506 21.045 7.2827 20.556 5.86767 20.4867C5.70056 20.4786 5.52543 20.4782 5.09162 20.4782L5.02186 20.4782C4.6479 20.4783 4.35976 20.4784 4.10215 20.4496C1.95956 20.2098 0.268397 18.5187 0.0286505 16.3761C-0.000174452 16.1185 -9.31228e-05 15.8304 1.25143e-05 15.4564V13.3922C-9.31228e-05 13.0182 -0.000174452 12.7301 0.0286506 12.4725C0.268397 10.3299 1.95956 8.63876 4.10215 8.39901C4.35974 8.37019 4.64786 8.37027 5.02179 8.37037L5.09162 8.37039C5.52543 8.37039 5.70056 8.37004 5.86767 8.36186C7.2827 8.29261 8.64506 7.80355 9.78106 6.95702C9.91522 6.85705 10.0506 6.74594 10.3853 6.47003L12.1311 5.03122C14.1008 3.40781 15.6751 2.11027 16.9722 1.29199Z" fill="white"/>
<path d="M21.9309 17.0646C22.8183 16.1772 24.3356 16.8057 24.3356 18.0607C24.3356 20.6131 24.3356 22.6533 24.1421 24.1747C23.9494 25.6895 23.5247 27.0843 22.3181 27.906C21.9177 28.1787 21.4768 28.3866 21.0117 28.5222C19.6102 28.9307 18.2637 28.3714 16.9722 27.5566C16.9082 27.5162 16.8435 27.4747 16.7782 27.432C15.3829 26.5207 14.6853 26.0651 14.6027 25.2702C14.5202 24.4753 15.1598 23.8357 16.439 22.5565L21.9309 17.0646Z" fill="white"/>
<path d="M29.5182 9.47725C29.0719 9.92358 29.0279 10.6232 29.3146 11.1856C30.6658 13.8361 30.2519 17.1529 28.0729 19.3952C28.0389 19.4302 27.9966 19.4726 27.893 19.5762L27.2217 20.2475C26.7301 20.7391 26.7301 21.536 27.2217 22.0276C27.7133 22.5192 28.5102 22.5192 29.0018 22.0276L29.6843 21.3452C29.7747 21.2547 29.8306 21.1988 29.8784 21.1497C32.9341 18.0051 33.4241 13.2986 31.3483 9.65313C30.9675 8.98426 30.0625 8.93298 29.5182 9.47725Z" fill="white"/>
<path d="M33.5655 6.62193C33.2649 6.26223 33.2631 5.73238 33.5945 5.40092L34.0224 4.97307C34.4375 4.55793 35.1208 4.55714 35.4973 5.00765C40.0527 10.459 40.0527 18.3896 35.4973 23.841C35.0763 24.3447 34.5389 24.8821 33.5931 25.8279L32.3584 27.0625C31.8669 27.5541 31.0699 27.5541 30.5783 27.0625C30.0868 26.571 30.0868 25.774 30.5783 25.2824L31.7531 24.1076C32.7748 23.086 33.226 22.6329 33.5655 22.2267C37.34 17.7098 37.34 11.1388 33.5655 6.62193Z" fill="white"/>
</svg>
