<svg width="26" height="26" viewBox="0 0 26 26" fill="none" xmlns="http://www.w3.org/2000/svg">
<path fill-rule="evenodd" clip-rule="evenodd" d="M12.0589 0.00840525C10.0932 0.199703 8.61094 0.623883 7.0033 1.45501C4.54907 2.72389 2.56731 4.74301 1.34199 7.22318C0.871245 8.17606 0.649386 8.76012 0.403346 9.6946C0.0931619 10.8724 0.00285056 11.5884 5.06043e-05 12.8915C-0.00132392 13.5402 0.0254539 14.2443 0.0619551 14.5182C0.339507 16.6011 0.993679 18.3962 2.08775 20.0768L2.45241 20.637L1.64235 23.025C1.1968 24.3383 0.839325 25.4199 0.847929 25.4286C0.856583 25.4371 1.97092 25.0905 3.32426 24.6582C4.67766 24.2259 5.80304 23.8721 5.82518 23.8721C5.84733 23.8721 6.05626 23.9906 6.28947 24.1353C6.52268 24.2801 7.0113 24.5408 7.37529 24.7148C10.6667 26.2878 14.4293 26.4225 17.7995 25.0878C21.6181 23.5756 24.551 20.2674 25.598 16.2917C25.9186 15.0739 26 14.4064 26 12.9931C26 11.5799 25.9186 10.9123 25.598 9.6946C24.3698 5.0305 20.6262 1.40504 15.9024 0.304935C15.1087 0.120093 14.2829 0.0264522 13.2807 0.00769354C12.7207 -0.00282962 12.1709 -0.0025246 12.0589 0.00840525ZM8.95401 6.04082C9.03831 6.08449 9.15642 6.20828 9.21654 6.31585C9.3683 6.58752 10.6059 9.56415 10.642 9.74421C10.6881 9.97455 10.4625 10.3661 9.9565 10.9343C9.42842 11.5271 9.31495 11.7174 9.36194 11.9312C9.44731 12.3191 10.6247 13.8783 11.3501 14.564C12.4757 15.628 14.1771 16.6384 14.9352 16.693C15.325 16.7211 15.4671 16.611 16.0634 15.8184C16.3338 15.4589 16.6223 15.0976 16.7044 15.0156C16.9008 14.8195 17.1923 14.778 17.5192 14.8994C17.9385 15.0553 20.5019 16.3019 20.6819 16.4375L20.8542 16.5673L20.8258 17.106C20.7528 18.4888 20.2671 19.2069 18.9824 19.8312C17.761 20.4248 16.805 20.4085 14.9333 19.7625C12.4222 18.8958 11.0893 18.0679 9.28323 16.2531C8.37951 15.345 7.7373 14.5772 7.00275 13.5269C5.79235 11.7961 5.32817 10.4596 5.46633 9.10311C5.57711 8.01551 5.9577 7.21265 6.72636 6.44512C7.0982 6.07376 7.58478 5.9209 8.3171 5.9453C8.62779 5.95562 8.85555 5.98978 8.95401 6.04082Z" fill="white"/>
</svg>
