<svg width="137" height="25" viewBox="0 0 137 25" fill="none" xmlns="http://www.w3.org/2000/svg">
<path d="M30.7499 9.1492C30.8929 8.04562 30.8929 7.0037 30.7499 6.01726H22.6519C22.6768 6.8619 22.6519 7.66954 22.596 8.44636C22.54 9.22318 22.4031 10.0555 22.1855 10.9433C21.974 11.8372 21.663 12.8237 21.2649 13.9026L19.4053 18.5512H18.802L19.567 6.02343H11.5747C11.5747 6.07275 11.5747 6.12824 11.5934 6.20222C11.6058 6.27004 11.6121 6.35635 11.6121 6.44883C11.5872 7.24414 11.5312 8.03946 11.4317 8.82244C11.3384 9.61159 11.1767 10.4686 10.9528 11.4118C10.7289 12.349 10.4117 13.4279 10.0136 14.6486L8.44005 18.5573H7.59418L8.84433 6.02959H0.211468L0 25H10.6169L13.1794 19.4266L12.9617 25H24.182L28.2309 16.5906C28.9151 15.1603 29.4749 13.8409 29.8978 12.6326C30.327 11.4242 30.6068 10.2713 30.7499 9.1677V9.1492Z" fill="white"/>
<path d="M32.9143 5.98644L29.649 24.9877H38.4933L41.796 5.98644H32.9143Z" fill="white"/>
<path d="M42.8595 0H34.0152L33.1631 4.78422H42.0385L42.8595 0Z" fill="white"/>
<path d="M44.8125 1.26387L40.6578 24.9877H49.4959L53.6506 1.19605L44.8125 1.26387Z" fill="white"/>
<path d="M55.8213 1.26387L51.6665 24.9877H60.5047L64.6594 1.19605L55.8213 1.26387Z" fill="white"/>
<path d="M70.6302 17.2441L70.5929 17.2318C70.5929 17.2318 70.5805 17.2441 70.5742 17.2441C70.5618 17.2441 70.5742 17.2441 70.624 17.2441H70.6302Z" fill="white"/>
<path d="M73.4539 11.7016C73.6094 11.5968 73.8147 11.5413 74.0759 11.5413C74.9778 11.5413 75.8672 11.5598 76.7566 11.5968C77.646 11.6338 78.5478 11.6831 79.4745 11.7571L80.4697 5.91245C79.1884 5.65351 77.9818 5.46856 76.8499 5.35142C75.7179 5.23428 74.5424 5.17263 73.3358 5.17263C71.3704 5.17263 69.7719 5.45623 68.5404 6.01726C67.3089 6.5783 66.4133 7.33046 65.8598 8.26757C65.3062 9.20469 65.0263 10.2959 65.0263 11.5413C65.0263 12.9285 65.2876 13.9951 65.81 14.7472C66.3325 15.4994 67.1223 16.0481 68.1859 16.3995L70.5991 17.2318C70.5991 17.2318 70.6178 17.2256 70.6364 17.2072C70.8728 17.2996 71.0532 17.3983 71.1713 17.5092C71.2895 17.6202 71.3517 17.7744 71.3517 17.984C71.3517 18.0764 71.3019 18.1751 71.19 18.2676C71.0843 18.36 70.935 18.434 70.7484 18.4772C70.5556 18.5265 70.3317 18.545 70.0767 18.545C69.1562 18.545 68.1921 18.5203 67.2032 18.4772C66.2081 18.4279 65.1569 18.36 64.0436 18.2676L63.0112 24.217C64.0498 24.4266 65.2689 24.5931 66.6683 24.7102C68.0677 24.8274 69.3925 24.889 70.6427 24.889C72.776 24.889 74.5113 24.5931 75.8609 24.0074C77.2106 23.4217 78.1746 22.6449 78.7531 21.6831C79.3315 20.7213 79.6238 19.6178 79.6238 18.3724C79.6238 17.0099 79.3128 15.9864 78.7033 15.2898C78.0876 14.5993 77.2355 14.0259 76.147 13.582L73.9453 12.7374C73.7338 12.6202 73.5597 12.5092 73.4291 12.4044C73.2984 12.2996 73.2363 12.1887 73.2363 12.0715C73.2363 11.9297 73.3109 11.8064 73.4664 11.7016H73.4539Z" fill="white"/>
<path d="M92.0818 12.0715H95.627L96.7651 5.56104H93.2386L93.8855 1.89889H85.0411L84.4005 5.56104H82.3418L81.2409 12.0715H83.2623L82.3107 17.5277C81.9064 19.9199 82.1179 21.7633 82.9327 23.0518C83.7474 24.3403 85.2837 24.9877 87.529 24.9877C88.3313 24.9877 89.3265 24.9137 90.5144 24.7596C91.6961 24.6054 92.7162 24.4575 93.5683 24.3218L94.6318 18.0949C94.2524 18.1443 93.7859 18.1813 93.2324 18.2183C92.6788 18.2552 92.2559 18.2737 91.9698 18.2737C91.3043 18.2737 91.0555 17.8298 91.2234 16.9359L92.0818 12.0777V12.0715Z" fill="white"/>
<path d="M118.671 5.56104L115.399 24.5314H110.423L109.571 16.2947C109.559 16.1344 109.621 15.9803 109.739 15.8755L112.153 13.8286C112.47 13.5573 112.32 13.0456 111.91 12.984L109.186 12.5832C109.012 12.5586 108.862 12.4353 108.8 12.2688L107.905 9.74723C107.768 9.37115 107.251 9.30949 107.034 9.64858L105.305 12.3551C105.23 12.4723 105.106 12.5524 104.969 12.5709L101.84 13.0148C101.461 13.0703 101.287 13.5203 101.548 13.8101L103.358 15.8385C103.47 15.9679 103.507 16.1406 103.457 16.3009L102.587 19.0752C102.456 19.476 102.879 19.8335 103.265 19.6486L105.802 18.4155C106.045 18.2984 106.337 18.397 106.455 18.6375L107.407 20.5364C107.544 20.8076 107.494 21.1344 107.283 21.3564L106.331 22.3551C105.442 23.2676 104.521 23.9211 103.576 24.3095C102.63 24.6917 101.648 24.889 100.628 24.889C99.5142 24.889 98.5626 24.6609 97.7727 24.2047C96.9766 23.7423 96.4293 22.8792 96.1183 21.6153C95.8135 20.3453 95.8509 18.6128 96.224 16.4057L96.6159 14.1554C97.0699 11.7571 97.7043 9.90136 98.5377 8.57583C99.365 7.25031 100.298 6.34402 101.343 5.86313C102.381 5.38224 103.551 5.1418 104.857 5.1418C106.275 5.1418 107.581 5.39457 108.781 5.90012C109.459 6.18372 110.119 6.52281 110.772 6.90506L111.922 5.5672H118.671V5.56104Z" fill="white"/>
<path d="M136.888 5.41924C136.366 5.23428 135.75 5.13564 135.041 5.13564C134.214 5.13564 133.337 5.33292 132.416 5.73366C131.496 6.1344 130.563 6.76942 129.63 7.65105C129.151 8.10111 128.672 8.62515 128.193 9.20469L127.161 5.55487H120.879L117.613 24.5253H125.923L126.439 21.8804C126.626 21.1652 126.85 20.4316 127.129 19.6671C127.745 17.5339 128.286 15.9618 128.747 14.9507C129.207 13.9396 129.673 13.2491 130.146 12.873C130.619 12.4969 131.222 12.312 131.956 12.312C132.69 12.312 133.884 12.349 135.545 12.4168L137 5.45006L136.894 5.41307L136.888 5.41924Z" fill="white"/>
</svg>
