<svg width="177" height="33" viewBox="0 0 177 33" fill="none" xmlns="http://www.w3.org/2000/svg">
<path d="M39.728 12.0769C39.9128 10.6202 39.9128 9.24488 39.728 7.94279H29.2656C29.2978 9.05771 29.2656 10.1238 29.1933 11.1492C29.121 12.1746 28.9442 13.2732 28.663 14.4451C28.3897 15.6252 27.988 16.9272 27.4737 18.3514L25.071 24.4875H24.2916L25.28 7.95093H14.9542C14.9542 8.01603 14.9542 8.08927 14.9783 8.18693C14.9944 8.27645 15.0025 8.39038 15.0025 8.51245C14.9703 9.56227 14.898 10.6121 14.7694 11.6456C14.6489 12.6873 14.44 13.8185 14.1507 15.0636C13.8614 16.3006 13.4516 17.7248 12.9373 19.3361L10.9043 24.4957H9.81146L11.4266 7.95906H0.27321L0 33H13.7168L17.0274 25.6432L16.7462 33H31.2424L36.4736 21.8996C37.3575 20.0116 38.0807 18.27 38.6271 16.675C39.1815 15.0799 39.5431 13.5581 39.728 12.1014V12.0769Z" fill="white"/>
<path d="M42.5244 7.9021L38.3057 32.9837H49.7323L53.9992 7.9021H42.5244Z" fill="white"/>
<path d="M55.3733 0H43.9467L42.8458 6.31517H54.3126L55.3733 0Z" fill="white"/>
<path d="M57.8964 1.66831L52.5287 32.9837H63.9472L69.315 1.57879L57.8964 1.66831Z" fill="white"/>
<path d="M72.1194 1.66831L66.7517 32.9837H78.1702L83.538 1.57879L72.1194 1.66831Z" fill="white"/>
<path d="M91.2522 22.7623L91.204 22.746C91.204 22.746 91.1879 22.7623 91.1799 22.7623C91.1638 22.7623 91.1799 22.7623 91.2442 22.7623H91.2522Z" fill="white"/>
<path d="M94.9003 15.4461C95.1012 15.3078 95.3664 15.2345 95.7039 15.2345C96.8691 15.2345 98.0182 15.2589 99.1673 15.3078C100.316 15.3566 101.481 15.4217 102.679 15.5194L103.965 7.80444C102.309 7.46264 100.75 7.2185 99.2878 7.06387C97.8253 6.90925 96.3066 6.82787 94.7477 6.82787C92.2084 6.82787 90.1433 7.20222 88.5522 7.94279C86.9612 8.68335 85.8041 9.6762 85.0889 10.9132C84.3737 12.1502 84.0121 13.5906 84.0121 15.2345C84.0121 17.0656 84.3496 18.4735 85.0246 19.4663C85.6996 20.4592 86.7201 21.1835 88.0942 21.6473L91.212 22.746C91.212 22.746 91.2361 22.7379 91.2602 22.7134C91.5656 22.8355 91.7986 22.9657 91.9513 23.1122C92.104 23.2587 92.1843 23.4621 92.1843 23.7388C92.1843 23.8609 92.12 23.9911 91.9754 24.1132C91.8388 24.2353 91.6459 24.3329 91.4049 24.3899C91.1558 24.455 90.8665 24.4794 90.537 24.4794C89.3477 24.4794 88.1022 24.4469 86.8246 24.3899C85.5389 24.3248 84.1809 24.2353 82.7425 24.1132L81.4086 31.9665C82.7505 32.2432 84.3255 32.4629 86.1335 32.6175C87.9415 32.7721 89.6531 32.8535 91.2683 32.8535C94.0245 32.8535 96.2664 32.4629 98.0101 31.6898C99.7538 30.9166 100.999 29.8912 101.747 28.6217C102.494 27.3522 102.872 25.8954 102.872 24.2515C102.872 22.453 102.47 21.1021 101.682 20.1825C100.887 19.271 99.786 18.5142 98.3798 17.9282L95.5352 16.8133C95.2619 16.6587 95.0369 16.5122 94.8682 16.3739C94.6995 16.2355 94.6191 16.089 94.6191 15.9344C94.6191 15.7472 94.7155 15.5845 94.9164 15.4461H94.9003Z" fill="white"/>
<path d="M118.967 15.9344H123.547L125.018 7.34057H120.462L121.297 2.50654H109.871L109.043 7.34057H106.383L104.961 15.9344H107.572L106.343 23.1366C105.821 26.2942 106.094 28.7275 107.147 30.4284C108.199 32.1292 110.184 32.9837 113.085 32.9837C114.121 32.9837 115.407 32.8861 116.942 32.6826C118.469 32.4792 119.787 32.2839 120.887 32.1048L122.262 23.8853C121.771 23.9504 121.169 23.9993 120.454 24.0481C119.738 24.0969 119.192 24.1213 118.822 24.1213C117.962 24.1213 117.641 23.5354 117.858 22.3554L118.967 15.9425V15.9344Z" fill="white"/>
<path d="M153.319 7.34057L149.092 32.3815H142.664L141.563 21.509C141.547 21.2974 141.627 21.094 141.78 20.9556L144.898 18.2538C145.308 17.8957 145.115 17.2202 144.584 17.1388L141.065 16.6099C140.84 16.5773 140.647 16.4145 140.567 16.1948L139.41 12.8663C139.233 12.3699 138.566 12.2885 138.285 12.7361L136.051 16.3088C135.954 16.4634 135.793 16.5692 135.617 16.5936L131.575 17.1795C131.085 17.2528 130.86 17.8469 131.197 18.2293L133.535 20.9068C133.68 21.0777 133.728 21.3055 133.664 21.5171L132.539 25.1793C132.37 25.7083 132.917 26.1803 133.415 25.9361L136.693 24.3085C137.007 24.1539 137.385 24.2841 137.537 24.6015L138.767 27.108C138.943 27.4661 138.879 27.8974 138.606 28.1904L137.376 29.5088C136.227 30.7132 135.038 31.5758 133.817 32.0885C132.595 32.5931 131.326 32.8535 130.008 32.8535C128.569 32.8535 127.34 32.5524 126.32 31.9502C125.291 31.3398 124.584 30.2005 124.182 28.5322C123.788 26.8557 123.837 24.5689 124.319 21.6555L124.825 18.6851C125.411 15.5194 126.231 13.0698 127.308 11.3201C128.377 9.57041 129.582 8.37411 130.932 7.73933C132.274 7.10456 133.785 6.78718 135.472 6.78718C137.304 6.78718 138.992 7.12084 140.543 7.78816C141.418 8.16252 142.27 8.61011 143.114 9.11467L144.6 7.34871H153.319V7.34057Z" fill="white"/>
<path d="M176.855 7.15339C176.18 6.90925 175.385 6.77904 174.469 6.77904C173.4 6.77904 172.267 7.03946 171.078 7.56843C169.888 8.09741 168.683 8.93563 167.478 10.0994C166.859 10.6935 166.24 11.3852 165.622 12.1502L164.288 7.33243H156.172L151.953 32.3734H162.689L163.356 28.8821C163.597 27.9381 163.886 26.9697 164.247 25.9605C165.043 23.1448 165.742 21.0695 166.337 19.7349C166.931 18.4002 167.534 17.4888 168.145 16.9924C168.755 16.4959 169.535 16.2518 170.483 16.2518C171.431 16.2518 172.974 16.3006 175.12 16.3901L177 7.19408L176.863 7.14525L176.855 7.15339Z" fill="white"/>
</svg>
