<svg width="18" height="18" viewBox="0 0 18 18" fill="none" xmlns="http://www.w3.org/2000/svg">
<path fill-rule="evenodd" clip-rule="evenodd" d="M5.81026 0.0500538C4.5952 0.0918889 3.97345 0.178465 3.34364 0.393397C1.77953 0.927164 0.686487 2.11598 0.277632 3.72808C0.0214322 4.73843 0 5.14417 0 8.98389C0 12.8262 0.0240632 13.285 0.278673 14.2954C0.702876 15.9786 1.93306 17.2435 3.58805 17.6985C4.62113 17.9824 4.99463 18.0037 8.87982 17.9996C13.2034 17.995 13.8083 17.9485 14.8678 17.5392C15.537 17.2807 15.9673 17.0001 16.4715 16.4936C17.1787 15.7834 17.5882 14.9626 17.8157 13.7996C17.9839 12.9401 18.0534 9.0657 17.9544 6.07792C17.9186 4.99904 17.881 4.54927 17.7897 4.10827C17.5538 2.96809 17.1771 2.23041 16.4718 1.52706C15.7694 0.826607 14.9873 0.424924 13.8968 0.204454C12.9727 0.0175946 8.97076 -0.0587831 5.81026 0.0500538ZM14.2675 3.22146C14.6931 3.43979 14.9046 3.80819 14.871 4.27287C14.8028 5.21633 13.7114 5.62278 13.0427 4.9538C12.4839 4.39492 12.6751 3.47027 13.4103 3.17562C13.6303 3.08745 14.0501 3.10993 14.2675 3.22146ZM9.78113 4.43637C10.2235 4.50815 10.9939 4.79491 11.4049 5.04071C11.8631 5.31486 12.5255 5.96031 12.8483 6.44725C14.5885 9.07195 13.2553 12.6261 10.2081 13.4861C9.61542 13.6534 8.42169 13.6674 7.86588 13.5136C7.02411 13.2807 6.31131 12.8699 5.72546 12.2801C4.87442 11.4234 4.43903 10.4401 4.37474 9.22953C4.32042 8.20723 4.56807 7.31055 5.14361 6.44528C5.8227 5.42441 6.90209 4.69572 8.08502 4.45962C8.52748 4.37129 9.31389 4.36054 9.78113 4.43637ZM8.25544 6.10978C6.9768 6.45378 6.09583 7.53096 6.01707 8.84682C5.93183 10.2705 6.91503 11.5863 8.30993 11.9153C9.76896 12.2593 11.2792 11.4451 11.8001 10.0337C11.9811 9.54354 12.0238 8.816 11.9006 8.32594C11.6231 7.22304 10.7924 6.38354 9.70422 6.10632C9.29904 6.00308 8.64626 6.00467 8.25544 6.10978Z" fill="#B8B5FF"/>
</svg>
