<svg width="18" height="18" viewBox="0 0 18 18" fill="none" xmlns="http://www.w3.org/2000/svg">
<path fill-rule="evenodd" clip-rule="evenodd" d="M6.94067 0.0162812C4.5559 0.128447 3.01042 0.275118 2.53628 0.434311C1.41404 0.811047 0.570466 1.75786 0.344352 2.89448C0.274713 3.24455 0.163257 4.41929 0.0790573 5.69107C0.00421341 6.82128 -0.0261743 9.98399 0.0263008 11.179C0.106209 12.9983 0.26272 14.8121 0.379031 15.2668C0.682873 16.4549 1.69344 17.4125 2.89565 17.6516C3.38453 17.7487 5.16615 17.8971 6.67689 17.9665C7.65682 18.0115 10.3509 18.0111 11.3195 17.9659C13.0837 17.8835 14.8438 17.7257 15.2834 17.6106C16.4062 17.3164 17.3305 16.3883 17.6173 15.2668C17.7298 14.8272 17.8888 13.0093 17.9659 11.2836C18.0114 10.2652 18.0114 7.72944 17.9659 6.71108C17.8888 4.98533 17.7298 3.16745 17.6173 2.72779C17.3297 1.60321 16.3919 0.665326 15.2674 0.377717C14.8362 0.267415 13.0131 0.105655 11.337 0.0289434C10.6602 -0.0020439 7.52229 -0.0110482 6.94067 0.0162812ZM11.2145 3.87087C11.2152 4.44792 11.2704 4.76609 11.4233 5.07554C11.6339 5.50187 12.0563 5.86444 12.5153 6.01287C12.6986 6.07213 12.8647 6.09028 13.3541 6.10449L13.9643 6.12218L13.9432 6.22756C13.9316 6.28556 13.9221 6.6713 13.9221 7.08479V7.83661H13.4811C12.6223 7.83661 12.0383 7.72272 11.4942 7.44915L11.2139 7.30825L11.2138 9.30469C11.2137 11.4658 11.2018 11.6435 11.0222 12.1805C10.3252 14.2643 7.86742 15.2307 5.9383 14.1794C5.08684 13.7153 4.48394 12.9644 4.19223 12.0046C4.10227 11.7086 4.09601 11.6458 4.09601 11.0373C4.09601 10.4305 4.10241 10.3658 4.19083 10.0777C4.39053 9.42702 4.66535 8.96 5.10766 8.51971C5.58733 8.04223 6.11711 7.73827 6.76481 7.56881C7.06813 7.48946 7.21212 7.4743 7.81115 7.45875L8.50578 7.44074V8.30297V9.1652L7.89908 9.18081C7.19492 9.19893 6.99371 9.25021 6.59955 9.51207C6.08992 9.85068 5.79761 10.4066 5.79761 11.0373C5.79761 11.5474 5.97417 11.9765 6.3308 12.3331C6.90743 12.9098 7.70807 13.0443 8.46248 12.6912C8.75152 12.5559 9.15211 12.1605 9.28882 11.8755C9.49897 11.4374 9.49057 11.6274 9.49057 7.31922V3.36966H10.3523H11.2139L11.2145 3.87087Z" fill="#B8B5FF"/>
</svg>
