<svg width="18" height="18" viewBox="0 0 18 18" fill="none" xmlns="http://www.w3.org/2000/svg">
<path d="M0.000469898 10.5742V7.40703C0.0122173 7.26224 0.027724 7.11745 0.0352423 6.97218C0.0563877 6.56836 0.0657857 6.16359 0.0949193 5.76071C0.152247 4.97234 0.232599 4.18538 0.280529 3.39606C0.36558 1.98997 1.28705 0.757812 2.65539 0.417453C3.40911 0.22988 4.20465 0.196032 4.98468 0.130687C5.78397 0.0629911 6.58656 0.0145699 7.38867 0.00751823C8.75373 -0.00517471 10.1202 -0.00611493 11.4843 0.0394856C12.5369 0.0742737 13.5871 0.181929 14.6378 0.267959C15.7261 0.357279 16.5874 0.849953 17.1973 1.76102C17.5479 2.2852 17.6982 2.87377 17.7391 3.49949C17.811 4.59249 17.9341 5.68314 17.9665 6.77709C18.007 8.15921 18.0145 9.54462 17.9684 10.9263C17.9247 12.2304 17.8321 13.5363 17.6888 14.8333C17.5455 16.1323 16.797 17.0156 15.5903 17.5064C15.1222 17.6968 14.6223 17.724 14.1265 17.7588C13.0928 17.8308 12.058 17.8961 11.0238 17.9652C10.9026 17.9732 10.7818 17.9882 10.6606 18H7.38867C7.24911 17.9882 7.11002 17.9727 6.97046 17.9652C6.57246 17.9445 6.17399 17.9351 5.77645 17.9064C4.98186 17.8486 4.1882 17.7856 3.39454 17.7151C2.12159 17.6018 1.18179 16.9832 0.602879 15.8366C0.382967 15.4008 0.306373 14.9288 0.271601 14.446C0.209105 13.5697 0.1358 12.6939 0.0718944 11.8171C0.0418209 11.4034 0.0234949 10.9888 0 10.5746L0.000469898 10.5742ZM8.93981 13.1485C10.1822 13.0723 11.3518 13.0042 12.5204 12.9266C12.941 12.8988 13.3371 12.7771 13.6909 12.5406C14.0217 12.3197 14.3027 12.0418 14.3751 11.6408C14.4743 11.0889 14.549 10.5304 14.5964 9.97148C14.6871 8.90433 14.6199 7.84047 14.4597 6.78226C14.4024 6.40335 14.3338 6.03337 14.0504 5.74003C13.6938 5.37146 13.2596 5.13171 12.7587 5.09128C11.5971 4.99773 10.4327 4.89524 9.26873 4.89148C8.01693 4.88772 6.76418 4.98738 5.51237 5.05414C5.02321 5.07999 4.57164 5.23654 4.18209 5.54399C3.91801 5.75225 3.69528 6.00423 3.63889 6.34036C3.54444 6.89932 3.46503 7.46298 3.41757 8.02758C3.32829 9.08297 3.39454 10.1351 3.55384 11.1815C3.60928 11.5473 3.66426 11.9111 3.93069 12.2017C4.29487 12.5994 4.74691 12.8476 5.2746 12.8923C6.51748 12.998 7.76318 13.0681 8.93981 13.148V13.1485Z" fill="#B8B5FF"/>
<path d="M7.67061 6.83256C8.84536 7.55418 9.99848 8.2631 11.1817 8.99036C10.0046 9.71339 8.84864 10.4237 7.67061 11.1467V6.83256Z" fill="#B8B5FF"/>
</svg>
