<svg width="99" height="81" viewBox="0 0 99 81" fill="none" xmlns="http://www.w3.org/2000/svg">
<path d="M50.4238 12.2908C50.6152 10.8083 50.6152 9.40859 50.4238 8.08344H39.5883C39.6216 9.2181 39.5883 10.3031 39.5134 11.3466C39.4385 12.3902 39.2555 13.5083 38.9642 14.7009C38.6812 15.9018 38.2651 17.227 37.7325 18.6764L35.2442 24.9212H34.437L35.4606 8.09172H24.7666C24.7666 8.15798 24.7666 8.23252 24.7916 8.3319C24.8083 8.42301 24.8166 8.53896 24.8166 8.66319C24.7833 9.7316 24.7084 10.8 24.5752 11.8518C24.4504 12.912 24.234 14.0632 23.9344 15.3304C23.6348 16.5893 23.2104 18.0387 22.6778 19.6785L20.5723 24.9294H19.4405L21.1132 8.1H9.57044L9.28749 33.5844H23.4934L26.9221 26.0972L26.6308 33.5844H41.6439L47.0616 22.2874C47.977 20.3659 48.726 18.5936 49.2919 16.9702C49.8662 15.3469 50.2407 13.7982 50.4321 12.3156L50.4238 12.2908Z" fill="white"/>
<path d="M53.3199 8.04202L48.9507 33.5678H60.7848L65.2038 8.04202H53.3199Z" fill="white"/>
<path d="M66.6269 0H54.7929L53.6527 6.42699H65.5284L66.6269 0Z" fill="white"/>
<path d="M69.2401 1.69785L63.6809 33.5678H75.5066L81.0658 1.60675L69.2401 1.69785Z" fill="white"/>
<path d="M83.9702 1.69785L78.4111 33.5678H90.2368L95.796 1.60675L83.9702 1.69785Z" fill="white"/>
<path d="M10.1946 56.7L10.1447 56.6834C10.1447 56.6834 10.128 56.7 10.1197 56.7C10.1031 56.7 10.1197 56.7 10.1863 56.7H10.1946Z" fill="white"/>
<path d="M13.9728 49.2543C14.1809 49.1135 14.4555 49.039 14.8051 49.039C16.0118 49.039 17.2018 49.0638 18.3919 49.1135C19.582 49.1632 20.7887 49.2294 22.0287 49.3288L23.3602 41.4773C21.6458 41.1294 20.0314 40.881 18.5167 40.7236C17.0021 40.5663 15.4292 40.4834 13.8147 40.4834C11.1849 40.4834 9.04615 40.8644 7.39837 41.6181C5.75059 42.3718 4.5522 43.3822 3.81153 44.6411C3.07086 45.9 2.69637 47.3659 2.69637 49.039C2.69637 50.9025 3.0459 52.3353 3.74496 53.3457C4.44401 54.3561 5.50092 55.0932 6.92401 55.5653L10.153 56.6834C10.153 56.6834 10.178 56.6752 10.2029 56.6503C10.5192 56.7745 10.7605 56.9071 10.9186 57.0561C11.0767 57.2052 11.16 57.4123 11.16 57.6939C11.16 57.8181 11.0934 57.9506 10.9436 58.0748C10.8021 58.1991 10.6024 58.2985 10.3527 58.3564C10.0947 58.4227 9.79514 58.4475 9.45393 58.4475C8.22226 58.4475 6.93233 58.4144 5.60911 58.3564C4.27757 58.2902 2.87113 58.1991 1.38147 58.0748L0 66.0672C1.38979 66.3488 3.02093 66.5724 4.89341 66.7298C6.76589 66.8871 8.5385 66.9699 10.2112 66.9699C13.0657 66.9699 15.3876 66.5724 17.1935 65.7856C18.9994 64.9988 20.2893 63.9552 21.0633 62.6632C21.8373 61.3712 22.2284 59.8886 22.2284 58.2156C22.2284 56.3853 21.8123 55.0104 20.9967 54.0745C20.1728 53.1469 19.0327 52.3767 17.5763 51.7804L14.6303 50.6457C14.3473 50.4883 14.1143 50.3393 13.9396 50.1985C13.7648 50.0577 13.6816 49.9086 13.6816 49.7512C13.6816 49.5607 13.7814 49.3951 13.9895 49.2543H13.9728Z" fill="white"/>
<path d="M38.9059 49.7512H43.6495L45.1725 41.0052H40.4538L41.3193 36.0856H29.4853L28.6281 41.0052H25.8735L24.4005 49.7512H27.1052L25.8319 57.081C25.2909 60.2945 25.5739 62.7709 26.6641 64.5018C27.7543 66.2328 29.8099 67.1024 32.8141 67.1024C33.8877 67.1024 35.2192 67.0031 36.8088 66.796C38.39 66.589 39.7548 66.3902 40.8949 66.208L42.318 57.8429C41.8104 57.9092 41.1862 57.9589 40.4455 58.0086C39.7049 58.0583 39.139 58.0831 38.7561 58.0831C37.8657 58.0831 37.5328 57.4868 37.7575 56.2859L38.9059 49.7595V49.7512Z" fill="white"/>
<path d="M74.483 41.0052L70.1056 66.4896H63.4479L62.3077 55.4245C62.2911 55.2092 62.3743 55.0021 62.5324 54.8613L65.7614 52.1117C66.1859 51.7472 65.9861 51.0598 65.4369 50.977L61.7918 50.4387C61.5588 50.4055 61.359 50.2399 61.2758 50.0163L60.0774 46.6288C59.8943 46.1236 59.2036 46.0408 58.9123 46.4963L56.5988 50.1322C56.4989 50.2896 56.3325 50.3972 56.1494 50.4221L51.9633 51.0184C51.4557 51.0929 51.2227 51.6975 51.5722 52.0868L53.9939 54.8117C54.1437 54.9856 54.1937 55.2175 54.1271 55.4328L52.962 59.1598C52.7872 59.6982 53.3531 60.1785 53.8691 59.9301L57.2645 58.2736C57.5891 58.1163 57.9802 58.2488 58.1384 58.5718L59.4116 61.1227C59.5947 61.4871 59.5282 61.9261 59.2452 62.2242L57.9719 63.5659C56.7819 64.7917 55.5502 65.6696 54.2852 66.1914C53.0203 66.7049 51.7054 66.9699 50.3405 66.9699C48.8509 66.9699 47.5776 66.6635 46.5207 66.0506C45.4554 65.4294 44.7231 64.2699 44.307 62.5721C43.8992 60.866 43.9491 58.5386 44.4485 55.5736L44.9728 52.5506C45.5803 49.3288 46.4291 46.8359 47.5443 45.0552C48.6511 43.2745 49.8995 42.0571 51.2976 41.411C52.6874 40.765 54.2519 40.442 55.9996 40.442C57.897 40.442 59.6447 40.7816 61.2508 41.4607C62.158 41.8417 63.0401 42.2972 63.9139 42.8107L65.4535 41.0135H74.483V41.0052Z" fill="white"/>
<path d="M98.8502 40.8147C98.1511 40.5663 97.3272 40.4337 96.3785 40.4337C95.2717 40.4337 94.0983 40.6988 92.8666 41.2371C91.6349 41.7755 90.3866 42.6285 89.1383 43.8129C88.4975 44.4175 87.8567 45.1215 87.2159 45.9L85.8344 40.9969H77.429L73.0599 66.4813H84.1783L84.869 62.9282C85.1187 61.9675 85.4183 60.9819 85.7928 59.9549C86.6167 57.0893 87.3407 54.9773 87.9565 53.619C88.5724 52.2607 89.1965 51.3331 89.829 50.8279C90.4615 50.3227 91.2687 50.0742 92.2508 50.0742C93.2328 50.0742 94.8306 50.1239 97.0526 50.215L99 40.8561L98.8585 40.8064L98.8502 40.8147Z" fill="white"/>
<path d="M17.3849 72.1049H18.9911L17.4681 80.8178H15.862L17.3849 72.1049ZM19.4571 69.3883L19.1575 71.1359H17.5514L17.851 69.3883H19.4571Z" fill="white"/>
<path d="M28.445 75.1942L27.4713 80.8261H25.9151L26.9221 75.1942C27.1052 74.2417 27.0552 73.4466 26.4061 73.4466C25.3991 73.4466 23.6598 75.4426 21.1548 80.8261H19.8649L21.3879 72.1298H22.7943L22.2118 76.511C23.9677 73.1816 25.2909 71.9475 26.8472 71.9475C28.4034 71.9475 28.8362 73.2147 28.4533 75.1942H28.445Z" fill="white"/>
<path d="M33.3634 71.8067L33.3135 72.1049H35.5355L35.3025 73.4218H33.0804L31.7739 80.8178H30.1843L31.4909 73.4218H30.1178L30.3508 72.1049H31.7239L31.8238 71.5583C32.0235 70.3077 32.5978 69.2227 34.3204 69.2227C35.0029 69.2227 35.6603 69.3883 36.4259 69.6368L36.1263 70.7218C35.5604 70.5561 35.0694 70.4733 34.67 70.4733C33.8461 70.4733 33.4966 70.9537 33.3634 71.8067Z" fill="white"/>
<path d="M37.3996 69.5954L38.9892 69.5457L37.0335 80.8261H35.4273L37.3996 69.6037V69.5954Z" fill="white"/>
<path d="M48.4514 72.1215L46.9285 80.8178H45.522L46.1046 76.4365C44.3486 79.766 43.0254 81 41.4691 81C39.9129 81 39.4802 79.7328 39.863 77.7534L40.8367 72.1215H42.3929L41.3859 77.7534C41.2028 78.7058 41.2528 79.5009 41.9019 79.5009C42.9089 79.5009 44.6482 77.5049 47.1532 72.1215H48.4514Z" fill="white"/>
<path d="M51.0895 77.9356C51.0063 78.9046 51.2227 79.6666 52.496 79.6666C53.4197 79.6666 54.8594 79.1696 56.0245 78.7307L55.908 79.9813C54.7845 80.4451 53.4946 80.9834 52.1964 80.9834C49.6997 80.9834 49.2503 79.2856 49.6165 77.1156L49.8495 75.7491C50.2823 73.3141 51.3225 71.931 54.1521 71.931C56.3241 71.931 57.0648 72.9 57.0648 74.0098C57.0648 75.7739 55.4586 76.4779 51.0895 77.9273V77.9356ZM51.4723 75.5503L51.2893 76.5856C54.435 75.4675 55.5585 75.0865 55.5585 74.134C55.5585 73.5874 55.1424 73.2147 54.0855 73.2147C52.3628 73.2147 51.7636 73.985 51.4723 75.5503Z" fill="white"/>
<path d="M66.1859 75.1942L65.2122 80.8261H63.6559L64.6629 75.1942C64.846 74.2417 64.7961 73.4466 64.1469 73.4466C63.14 73.4466 61.4006 75.4426 58.8957 80.8261H57.6057L59.1287 72.1298H60.5351L59.9526 76.511C61.7085 73.1816 63.0318 71.9475 64.588 71.9475C66.1442 71.9475 66.577 73.2147 66.1942 75.1942H66.1859Z" fill="white"/>
<path d="M73.4677 76.0555L73.9005 73.604C73.4178 73.4052 72.8436 73.2396 72.2277 73.2396C70.4551 73.2396 69.8975 74.0015 69.6312 75.542L69.315 77.3724C69.1319 78.4242 69.0487 79.6748 70.6382 79.6748C71.5786 79.6748 72.9018 79.2442 74.1834 78.739L74.0669 79.973C72.8935 80.5031 71.4704 80.9917 70.3885 80.9917C68.1748 80.9917 67.326 79.6748 67.7421 77.2316L67.9918 75.7822C68.4578 73.281 69.3483 71.9558 72.1445 71.9558C73.2846 71.9558 74.6411 72.3202 75.3402 72.6847L74.7576 75.8319L73.4677 76.0638V76.0555Z" fill="white"/>
<path d="M77.6537 77.9356C77.5705 78.9046 77.7869 79.6666 79.0602 79.6666C79.9839 79.6666 81.4237 79.1696 82.5888 78.7307L82.4723 79.9813C81.3488 80.4451 80.0588 80.9834 78.7606 80.9834C76.2639 80.9834 75.8145 79.2856 76.1807 77.1156L76.4137 75.7491C76.8465 73.3141 77.8868 71.931 80.7163 71.931C82.8884 71.931 83.629 72.9 83.629 74.0098C83.629 75.7739 82.0229 76.4779 77.6537 77.9273V77.9356ZM78.0366 75.5503L77.8535 76.5856C80.9992 75.4675 82.1227 75.0865 82.1227 74.134C82.1227 73.5874 81.7066 73.2147 80.6497 73.2147C78.927 73.2147 78.3278 73.985 78.0366 75.5503Z" fill="white"/>
</svg>
