<svg width="101" height="84" viewBox="0 0 101 84" fill="none" xmlns="http://www.w3.org/2000/svg">
<path d="M51.4424 12.7486C51.6377 11.2109 51.6377 9.75905 51.4424 8.38454H40.3881C40.4221 9.56146 40.3881 10.6868 40.3117 11.7693C40.2353 12.8517 40.0485 14.0115 39.7513 15.2485C39.4627 16.4942 39.0382 17.8687 38.4948 19.3721L35.9562 25.8495H35.1326L36.1769 8.39313H25.267C25.267 8.46185 25.267 8.53917 25.2924 8.64226C25.3094 8.73676 25.3179 8.85703 25.3179 8.98589C25.284 10.0941 25.2075 11.2023 25.0717 12.2933C24.9443 13.3929 24.7236 14.587 24.418 15.9014C24.1123 17.2072 23.6793 18.7106 23.1359 20.4115L20.9879 25.858H19.8332L21.5398 8.40172H9.76379L9.47512 34.8353H23.968L27.466 27.0693L27.1688 34.8353H42.4852L48.0124 23.1176C48.9463 21.1246 49.7104 19.2862 50.2877 17.6024C50.8736 15.9186 51.2556 14.3121 51.4509 12.7744L51.4424 12.7486Z" fill="white"/>
<path d="M54.397 8.34158L49.9396 34.8182H62.0128L66.5211 8.34158H54.397Z" fill="white"/>
<path d="M67.9729 0H55.8998L54.7366 6.66639H66.8522L67.9729 0Z" fill="white"/>
<path d="M70.6389 1.7611L64.9674 34.8182H77.032L82.7035 1.6666L70.6389 1.7611Z" fill="white"/>
<path d="M85.6666 1.7611L79.9951 34.8182H92.0598L97.7312 1.6666L85.6666 1.7611Z" fill="white"/>
<path d="M10.4006 58.812L10.3496 58.7948C10.3496 58.7948 10.3326 58.812 10.3241 58.812C10.3072 58.812 10.3241 58.812 10.3921 58.812H10.4006Z" fill="white"/>
<path d="M14.2551 51.089C14.4674 50.9429 14.7476 50.8656 15.1042 50.8656C16.3352 50.8656 17.5493 50.8914 18.7634 50.9429C19.9776 50.9945 21.2086 51.0632 22.4737 51.1663L23.8321 43.0223C22.0831 42.6615 20.436 42.4038 18.8908 42.2405C17.3456 42.0773 15.7409 41.9914 14.0938 41.9914C11.4109 41.9914 9.2289 42.3866 7.54783 43.1683C5.86676 43.9501 4.64417 44.9982 3.88853 46.3039C3.1329 47.6097 2.75084 49.1303 2.75084 50.8656C2.75084 52.7985 3.10743 54.2847 3.82061 55.3328C4.53379 56.3809 5.61205 57.1454 7.06389 57.6351L10.3581 58.7948C10.3581 58.7948 10.3836 58.7863 10.409 58.7605C10.7317 58.8893 10.9779 59.0268 11.1392 59.1814C11.3005 59.3361 11.3854 59.5508 11.3854 59.8429C11.3854 59.9718 11.3175 60.1092 11.1647 60.2381C11.0203 60.3669 10.8166 60.47 10.5619 60.5302C10.2987 60.5989 9.99302 60.6247 9.64492 60.6247C8.38836 60.6247 7.07238 60.5903 5.72243 60.5302C4.36399 60.4614 2.92914 60.3669 1.40938 60.2381L0 68.5281C1.41787 68.8202 3.08196 69.0522 4.99227 69.2154C6.90257 69.3786 8.71099 69.4645 10.4175 69.4645C13.3297 69.4645 15.6985 69.0522 17.5409 68.236C19.3832 67.4199 20.6992 66.3375 21.4888 64.9973C22.2784 63.6572 22.6775 62.1195 22.6775 60.3841C22.6775 58.4856 22.2529 57.0595 21.4209 56.0888C20.5804 55.1266 19.4172 54.3277 17.9314 53.7091L14.9259 52.5322C14.6372 52.369 14.3995 52.2144 14.2212 52.0683C14.0429 51.9223 13.958 51.7676 13.958 51.6044C13.958 51.4068 14.0599 51.235 14.2721 51.089H14.2551Z" fill="white"/>
<path d="M39.6919 51.6044H44.5314L46.0851 42.5326H41.2711L42.1541 37.4297H30.0809L29.2065 42.5326H26.3962L24.8934 51.6044H27.6527L26.3537 59.2072C25.8019 62.5404 26.0905 65.109 27.2028 66.9045C28.315 68.6999 30.4121 69.602 33.4771 69.602C34.5723 69.602 35.9307 69.4989 37.5524 69.2841C39.1655 69.0693 40.5579 68.8632 41.7211 68.6742L43.1729 59.9975C42.655 60.0663 42.0182 60.1178 41.2626 60.1694C40.507 60.2209 39.9296 60.2467 39.5391 60.2467C38.6306 60.2467 38.291 59.6281 38.5203 58.3825L39.6919 51.613V51.6044Z" fill="white"/>
<path d="M75.9877 42.5326L71.5219 68.9662H64.7297L63.5665 57.4891C63.5495 57.2657 63.6344 57.0509 63.7957 56.9049L67.0899 54.0528C67.5229 53.6748 67.3192 52.9618 66.7588 52.8758L63.0401 52.3174C62.8024 52.2831 62.5986 52.1113 62.5137 51.8793L61.2911 48.3657C61.1043 47.8417 60.3996 47.7558 60.1025 48.2283L57.7422 51.9996C57.6403 52.1628 57.4705 52.2745 57.2837 52.3003L53.0131 52.9188C52.4952 52.9961 52.2575 53.6232 52.6141 54.027L55.0847 56.8533C55.2376 57.0337 55.2885 57.2743 55.2206 57.4976L54.0319 61.3635C53.8536 61.9219 54.431 62.4201 54.9574 62.1624L58.4214 60.4443C58.7525 60.281 59.1516 60.4185 59.3129 60.7535L60.6119 63.3995C60.7987 63.7775 60.7307 64.2328 60.4421 64.542L59.1431 65.9337C57.929 67.2052 56.6724 68.1158 55.3819 68.657C54.0914 69.1896 52.7499 69.4645 51.3575 69.4645C49.8378 69.4645 48.5387 69.1467 47.4605 68.5109C46.3737 67.8666 45.6266 66.6639 45.2021 64.9028C44.7861 63.1332 44.837 60.7192 45.3464 57.6437L45.8813 54.5081C46.5011 51.1663 47.3671 48.5805 48.5048 46.7335C49.634 44.8865 50.9075 43.6236 52.3339 42.9536C53.7518 42.2835 55.3479 41.9485 57.1309 41.9485C59.0667 41.9485 60.8496 42.3007 62.4882 43.0051C63.4137 43.4003 64.3136 43.8728 65.2051 44.4054L66.7758 42.5412H75.9877V42.5326Z" fill="white"/>
<path d="M100.847 42.335C100.134 42.0773 99.2935 41.9399 98.3256 41.9399C97.1964 41.9399 95.9992 42.2148 94.7427 42.7732C93.4861 43.3316 92.2126 44.2164 90.939 45.4449C90.2853 46.072 89.6316 46.8022 88.9778 47.6097L87.5684 42.524H78.9933L74.5359 68.9577H85.8789L86.5836 65.2722C86.8383 64.2757 87.1439 63.2534 87.526 62.1882C88.3665 59.2158 89.1052 57.0252 89.7334 55.6163C90.3617 54.2074 90.9985 53.2452 91.6437 52.7212C92.289 52.1972 93.1126 51.9395 94.1144 51.9395C95.1163 51.9395 96.7464 51.991 99.0133 52.0855L101 42.378L100.856 42.3264L100.847 42.335Z" fill="white"/>
<path d="M52.7499 77.8662L51.7566 83.8282H50.1689L51.1962 77.9006C51.4 76.8096 51.383 76.1739 50.8056 76.1739C49.9142 76.1739 48.3435 78.3301 46.0256 83.8282H44.6587L45.686 77.9006C45.8728 76.8096 45.8728 76.1739 45.3125 76.1739C44.404 76.1739 42.8333 78.3301 40.5155 83.8282H39.1655L40.7192 74.8079H42.1031L41.6107 79.1462C43.0965 75.9161 44.3615 74.6189 45.8473 74.6189C47.1803 74.6189 47.6388 75.71 47.2482 77.8662L47.0105 79.4211C48.5472 75.9849 49.8462 74.6189 51.366 74.6189C52.699 74.6189 53.1574 75.71 52.7669 77.8662H52.7499Z" fill="white"/>
<path d="M55.8743 80.8386C55.7894 81.8437 56.0102 82.6341 57.3092 82.6341C58.2516 82.6341 59.7204 82.1186 60.909 81.6633L60.7902 82.9605C59.644 83.4416 58.328 84 57.0035 84C54.4565 84 53.998 82.2389 54.3716 79.9881L54.6093 78.5707C55.0508 76.045 56.1121 74.6103 58.9987 74.6103C61.2147 74.6103 61.9703 75.6155 61.9703 76.7666C61.9703 78.5964 60.3317 79.3266 55.8743 80.83V80.8386ZM56.2649 78.3645L56.0781 79.4383C59.2874 78.2786 60.4336 77.8834 60.4336 76.8955C60.4336 76.3285 60.0091 75.9419 58.9308 75.9419C57.1733 75.9419 56.562 76.7323 56.2649 78.3645Z" fill="white"/>
<path d="M72.0143 72.1362L70.0191 83.8368H68.6352L69.1785 79.7046C67.7097 82.0671 66.0202 83.9742 64.4495 83.9742C63.3373 83.9742 62.2505 83.1925 62.7939 80.1857L63.0146 78.9057C63.592 75.6756 64.7382 74.6189 66.6145 74.6189C67.7777 74.6189 68.9578 75.1 69.8747 75.5897L70.4351 72.1878L72.0058 72.1362H72.0143ZM69.62 76.8869C68.5927 76.3371 67.7267 75.9677 66.8522 75.9677C65.74 75.9677 65.0268 76.7065 64.5938 79.0432L64.39 80.2544C64.0674 82.1358 64.441 82.4966 64.9334 82.4966C66.0456 82.4966 67.956 79.9881 69.6115 76.8783L69.62 76.8869Z" fill="white"/>
<path d="M74.0265 74.7907H75.6651L74.1114 83.8282H72.4728L74.0265 74.7907ZM76.1405 71.973L75.8349 73.7856H74.1963L74.5019 71.973H76.1405Z" fill="white"/>
<path d="M85.6581 74.8079L84.1214 83.8282H82.6695L83.2129 79.696C81.7611 82.0585 80.1055 83.9656 78.5348 83.9656C77.3716 83.9656 76.2764 83.2011 76.8283 80.1771L77.049 78.8971C77.6263 75.667 78.7725 74.6103 80.6489 74.6103C81.812 74.6103 83.0771 75.1086 84.011 75.6326L84.2997 74.8079H85.6581ZM83.6459 76.8783C82.6356 76.3285 81.7186 75.9591 80.8951 75.9591C79.7829 75.9591 79.0697 76.6979 78.6367 79.0346L78.4329 80.2974C78.1103 82.1272 78.5178 82.488 79.0272 82.488C80.1055 82.488 81.9988 79.9624 83.6374 76.8697L83.6459 76.8783Z" fill="white"/>
</svg>
