<svg width="99" height="84" viewBox="0 0 99 84" fill="none" xmlns="http://www.w3.org/2000/svg">
<path d="M50.4238 12.3385C50.6152 10.8502 50.6152 9.44512 50.4238 8.11482H39.5883C39.6216 9.25389 39.5883 10.3431 39.5134 11.3907C39.4385 12.4383 39.2555 13.5607 38.9642 14.758C38.6812 15.9636 38.2651 17.2939 37.7325 18.7489L35.2442 25.0179H34.437L35.4606 8.12313H24.7666C24.7666 8.18965 24.7666 8.26448 24.7916 8.36425C24.8083 8.45571 24.8166 8.57211 24.8166 8.69682C24.7833 9.76938 24.7084 10.8419 24.5752 11.8979C24.4504 12.9621 24.234 14.1178 23.9344 15.3899C23.6348 16.6537 23.2104 18.1087 22.6778 19.7549L20.5723 25.0262H19.4405L21.1132 8.13145H9.57044L9.28749 33.7147H23.4934L26.9221 26.1986L26.6308 33.7147H41.6439L47.0616 22.3739C47.977 20.445 48.726 18.6657 49.2919 17.0361C49.8662 15.4065 50.2407 13.8517 50.4321 12.3635L50.4238 12.3385Z" fill="white"/>
<path d="M53.3199 8.07325L48.9507 33.6981H60.7848L65.2038 8.07325H53.3199Z" fill="white"/>
<path d="M66.6269 0H54.7929L53.6527 6.45195H65.5284L66.6269 0Z" fill="white"/>
<path d="M69.2401 1.70444L63.6809 33.6981H75.5066L81.0658 1.61299L69.2401 1.70444Z" fill="white"/>
<path d="M83.9702 1.70444L78.4111 33.6981H90.2368L95.796 1.61299L83.9702 1.70444Z" fill="white"/>
<path d="M10.1946 56.9201L10.1447 56.9035C10.1447 56.9035 10.128 56.9201 10.1197 56.9201C10.1031 56.9201 10.1197 56.9201 10.1863 56.9201H10.1946Z" fill="white"/>
<path d="M13.9728 49.4455C14.1809 49.3042 14.4555 49.2293 14.8051 49.2293C16.0118 49.2293 17.2018 49.2543 18.3919 49.3042C19.582 49.3541 20.7887 49.4206 22.0287 49.5203L23.3602 41.6383C21.6458 41.2891 20.0314 41.0397 18.5167 40.8817C17.0021 40.7237 15.4292 40.6406 13.8147 40.6406C11.1849 40.6406 9.04615 41.0231 7.39837 41.7797C5.75059 42.5363 4.5522 43.5506 3.81153 44.8144C3.07086 46.0782 2.69637 47.5498 2.69637 49.2293C2.69637 51.1001 3.0459 52.5385 3.74496 53.5528C4.44401 54.5672 5.50092 55.3071 6.92401 55.7811L10.153 56.9035C10.153 56.9035 10.178 56.8952 10.2029 56.8702C10.5192 56.995 10.7605 57.128 10.9186 57.2776C11.0767 57.4273 11.16 57.6352 11.16 57.9179C11.16 58.0426 11.0934 58.1756 10.9436 58.3003C10.8021 58.425 10.6024 58.5248 10.3527 58.583C10.0947 58.6495 9.79514 58.6745 9.45393 58.6745C8.22226 58.6745 6.93233 58.6412 5.60911 58.583C4.27757 58.5165 2.87113 58.425 1.38147 58.3003L0 66.3237C1.38979 66.6064 3.02093 66.8308 4.89341 66.9888C6.76589 67.1468 8.5385 67.2299 10.2112 67.2299C13.0657 67.2299 15.3876 66.8308 17.1935 66.041C18.9994 65.2511 20.2893 64.2035 21.0633 62.9065C21.8373 61.6094 22.2284 60.1212 22.2284 58.4417C22.2284 56.6042 21.8123 55.224 20.9967 54.2845C20.1728 53.3533 19.0327 52.58 17.5763 51.9814L14.6303 50.8423C14.3473 50.6844 14.1143 50.5347 13.9396 50.3933C13.7648 50.252 13.6816 50.1023 13.6816 49.9444C13.6816 49.7531 13.7814 49.5869 13.9895 49.4455H13.9728Z" fill="white"/>
<path d="M38.9059 49.9444H43.6495L45.1725 41.1644H40.4538L41.3193 36.2257H29.4853L28.6281 41.1644H25.8735L24.4005 49.9444H27.1052L25.8319 57.3026C25.2909 60.5286 25.5739 63.0145 26.6641 64.7523C27.7543 66.49 29.8099 67.363 32.8141 67.363C33.8877 67.363 35.2192 67.2632 36.8088 67.0553C38.39 66.8475 39.7548 66.6479 40.8949 66.465L42.318 58.0675C41.8104 58.134 41.1862 58.1839 40.4455 58.2338C39.7049 58.2837 39.139 58.3086 38.7561 58.3086C37.8657 58.3086 37.5328 57.71 37.7575 56.5044L38.9059 49.9527V49.9444Z" fill="white"/>
<path d="M74.483 41.1644L70.1056 66.7477H63.4479L62.3077 55.6397C62.2911 55.4235 62.3743 55.2157 62.5324 55.0743L65.7614 52.314C66.1859 51.9481 65.9861 51.258 65.4369 51.1749L61.7918 50.6345C61.5588 50.6012 61.359 50.4349 61.2758 50.2104L60.0774 46.8099C59.8943 46.3027 59.2036 46.2195 58.9123 46.6768L56.5988 50.3268C56.4989 50.4848 56.3325 50.5929 56.1494 50.6178L51.9633 51.2165C51.4557 51.2913 51.2227 51.8982 51.5722 52.289L53.9939 55.0244C54.1437 55.1991 54.1937 55.4319 54.1271 55.648L52.962 59.3895C52.7872 59.9299 53.3531 60.4122 53.8691 60.1627L57.2645 58.4999C57.5891 58.3419 57.9802 58.4749 58.1384 58.7992L59.4116 61.36C59.5947 61.7258 59.5282 62.1665 59.2452 62.4658L57.9719 63.8127C56.7819 65.0433 55.5502 65.9246 54.2852 66.4484C53.0203 66.9639 51.7054 67.2299 50.3405 67.2299C48.8509 67.2299 47.5776 66.9223 46.5207 66.307C45.4554 65.6835 44.7231 64.5195 44.307 62.815C43.8992 61.1022 43.9491 58.7659 44.4485 55.7894L44.9728 52.7546C45.5803 49.5203 46.4291 47.0177 47.5443 45.2301C48.6511 43.4425 49.8995 42.2203 51.2976 41.5718C52.6874 40.9233 54.2519 40.599 55.9996 40.599C57.897 40.599 59.6447 40.9399 61.2508 41.6217C62.158 42.0042 63.0401 42.4614 63.9139 42.9769L65.4535 41.1727H74.483V41.1644Z" fill="white"/>
<path d="M98.8502 40.9732C98.1511 40.7237 97.3272 40.5907 96.3785 40.5907C95.2717 40.5907 94.0983 40.8568 92.8666 41.3972C91.6349 41.9376 90.3866 42.794 89.1383 43.983C88.4975 44.5899 87.8567 45.2966 87.2159 46.0782L85.8344 41.1561H77.429L73.0599 66.7394H84.1783L84.869 63.1725C85.1187 62.2081 85.4183 61.2186 85.7928 60.1877C86.6167 57.3109 87.3407 55.1907 87.9565 53.8272C88.5724 52.4636 89.1965 51.5324 89.829 51.0252C90.4615 50.5181 91.2687 50.2686 92.2508 50.2686C93.2328 50.2686 94.8306 50.3185 97.0526 50.41L99 41.0148L98.8585 40.9649L98.8502 40.9732Z" fill="white"/>
<path d="M9.18762 75.9184L8.95461 77.1739C8.3887 80.2835 7.2985 81.3061 5.3428 81.3061C4.26925 81.3061 3.12912 81.0401 2.1804 80.6077L1.59785 84H0L2.00563 72.4098H3.44536L2.87946 76.4921C4.31918 74.1475 5.942 72.2601 7.49823 72.2601C8.62172 72.2601 9.71192 72.892 9.18762 75.9268V75.9184ZM7.01555 73.6985C5.95864 73.6985 4.05287 76.2427 2.41342 79.3356C3.23731 79.7347 4.23596 80.0008 5.10978 80.0008C6.2832 80.0008 6.98226 79.2858 7.40669 77.0243L7.60642 75.8519C7.93931 74.0477 7.55649 73.6985 7.02387 73.6985H7.01555Z" fill="white"/>
<path d="M17.7927 72.3516L17.5597 73.7567C17.2601 73.6902 17.0604 73.6736 16.8024 73.6736C15.4126 73.6736 13.59 76.2011 11.601 81.1315H10.3111L11.8341 72.4015H13.2405L12.6746 76.7665C14.1809 73.5073 15.5873 72.2186 16.844 72.2186C17.2102 72.2186 17.4432 72.2684 17.801 72.3516H17.7927Z" fill="white"/>
<path d="M17.7594 77.4899L18.0091 76.0847C18.4085 73.765 19.3656 72.2186 22.6112 72.2186C25.5406 72.2186 26.2563 73.6403 25.8402 76.0348L25.5739 77.4566C25.1911 79.768 24.2174 81.2895 20.9884 81.2895C18.2754 81.2895 17.31 80.1505 17.7594 77.4899ZM23.9511 77.6728L24.2673 75.802C24.467 74.5466 24.4338 73.5488 22.4115 73.5488C20.3892 73.5488 19.8982 74.505 19.6485 75.8436L19.3323 77.6811C19.1492 78.87 19.0993 79.9675 21.2048 79.9675C23.0773 79.9675 23.7014 79.1361 23.9511 77.6811V77.6728Z" fill="white"/>
<path d="M36.2512 69.8157L34.2955 81.1399H32.939L33.4716 77.1406C32.0319 79.4271 30.3758 81.2729 28.8362 81.2729C27.746 81.2729 26.6807 80.5163 27.2133 77.6063L27.4297 76.3674C27.9956 73.2412 29.1191 72.2186 30.9583 72.2186C32.0984 72.2186 33.2552 72.6842 34.154 73.1581L34.7033 69.8656L36.2429 69.8157H36.2512ZM33.9043 74.4135C32.8974 73.8814 32.0485 73.5239 31.1913 73.5239C30.1011 73.5239 29.4021 74.2389 28.9776 76.5005L28.7779 77.6728C28.4617 79.4936 28.8278 79.8428 29.3105 79.8428C30.4007 79.8428 32.2732 77.415 33.896 74.4052L33.9043 74.4135Z" fill="white"/>
<path d="M45.7301 72.4098L44.2071 81.1399H42.8007L43.3832 76.7416C41.6273 80.0839 40.3041 81.3228 38.7478 81.3228C37.1916 81.3228 36.7588 80.0507 37.1416 78.0635L38.1153 72.4098H39.6716L38.6646 78.0635C38.4815 79.0197 38.5314 79.8179 39.1806 79.8179C40.1875 79.8179 41.9269 77.8141 44.4318 72.4098H45.7301Z" fill="white"/>
<path d="M52.5875 76.3508L53.0203 73.8897C52.5376 73.6902 51.9633 73.5239 51.3475 73.5239C49.5749 73.5239 49.0173 74.2888 48.751 75.8353L48.4348 77.6728C48.2517 78.7287 48.1685 79.9842 49.758 79.9842C50.6984 79.9842 52.0216 79.5518 53.3032 79.0446L53.1867 80.2835C52.0133 80.8156 50.5902 81.3061 49.5083 81.3061C47.2946 81.3061 46.4458 79.9842 46.8619 77.5314L47.1115 76.0764C47.5776 73.5655 48.4681 72.2269 51.2643 72.2269C52.4044 72.2269 53.7609 72.5927 54.46 72.9585L53.8774 76.118L52.5875 76.3508Z" fill="white"/>
<path d="M57.4643 78.7453C57.3145 79.6682 57.5641 80.0008 58.0468 80.0008C58.4796 80.0008 59.5032 79.7347 59.7861 79.6183L59.6696 80.8073C59.2202 80.9736 58.0968 81.2895 57.3561 81.2895C56.0994 81.2895 55.6001 80.4498 55.8664 78.8617L56.7402 73.7318H55.2173L55.4337 72.4098H56.9733L57.3561 70.1566H58.9623L58.5628 72.4098H60.9596L60.7265 73.7318H58.3464L57.4559 78.7453H57.4643Z" fill="white"/>
<path d="M62.8653 72.3848H64.4715L62.9486 81.1315H61.3424L62.8653 72.3848ZM64.9375 69.6577L64.6379 71.4121H63.0318L63.3314 69.6577H64.9375Z" fill="white"/>
<path d="M65.595 77.4899L65.8447 76.0847C66.2441 73.765 67.2012 72.2186 70.4468 72.2186C73.3762 72.2186 74.0919 73.6403 73.6758 76.0348L73.4095 77.4566C73.0266 79.768 72.053 81.2895 68.824 81.2895C66.111 81.2895 65.1456 80.1505 65.595 77.4899ZM71.7866 77.6728L72.1029 75.802C72.3026 74.5466 72.2693 73.5488 70.2471 73.5488C68.2248 73.5488 67.7338 74.505 67.4841 75.8436L67.1679 77.6811C66.9848 78.87 66.9349 79.9675 69.0404 79.9675C70.9128 79.9675 71.537 79.1361 71.7866 77.6811V77.6728Z" fill="white"/>
<path d="M83.371 75.4861L82.3974 81.1399H80.8411L81.8481 75.4861C82.0312 74.5299 81.9813 73.7318 81.3321 73.7318C80.3251 73.7318 78.5858 75.7355 76.0809 81.1399H74.7909L76.3139 72.4098H77.7203L77.1378 76.8081C78.8937 73.4657 80.217 72.2269 81.7732 72.2269C83.3294 72.2269 83.7622 73.499 83.3794 75.4861H83.371Z" fill="white"/>
</svg>
